<svg width="25" height="25" viewBox="0 0 25 25" fill="none" xmlns="http://www.w3.org/2000/svg">
<path d="M25 12.5C25 19.4036 19.4036 25 12.5 25C5.59644 25 0 19.4036 0 12.5C0 5.59644 5.59644 0 12.5 0C19.4036 0 25 5.59644 25 12.5ZM13.2812 7.03125C13.2812 6.59978 12.9315 6.25 12.5 6.25C12.0685 6.25 11.7188 6.59978 11.7188 7.03125V11.7188H7.03125C6.59978 11.7188 6.25 12.0685 6.25 12.5C6.25 12.9315 6.59978 13.2812 7.03125 13.2812H11.7188V17.9688C11.7188 18.4002 12.0685 18.75 12.5 18.75C12.9315 18.75 13.2812 18.4002 13.2812 17.9688V13.2812H17.9688C18.4002 13.2812 18.75 12.9315 18.75 12.5C18.75 12.0685 18.4002 11.7188 17.9688 11.7188H13.2812V7.03125Z" fill="#20C997"/>
</svg>
