<svg width="25" height="25" viewBox="0 0 25 25" fill="none" xmlns="http://www.w3.org/2000/svg">
<path d="M25 12.5C25 19.4036 19.4036 25 12.5 25C5.59644 25 0 19.4036 0 12.5C0 5.59644 5.59644 0 12.5 0C19.4036 0 25 5.59644 25 12.5ZM8.36493 7.26007C8.05983 6.95498 7.56517 6.95498 7.26007 7.26007C6.95498 7.56517 6.95498 8.05983 7.26007 8.36493L11.3951 12.5L7.26007 16.6351C6.95498 16.9402 6.95498 17.4348 7.26007 17.7399C7.56517 18.045 8.05983 18.045 8.36493 17.7399L12.5 13.6049L16.6351 17.7399C16.9402 18.045 17.4348 18.045 17.7399 17.7399C18.045 17.4348 18.045 16.9402 17.7399 16.6351L13.6049 12.5L17.7399 8.36493C18.045 8.05983 18.045 7.56517 17.7399 7.26007C17.4348 6.95498 16.9402 6.95498 16.6351 7.26007L12.5 11.3951L8.36493 7.26007Z" fill="#DC3545"/>
</svg>
