<svg width="25" height="25" viewBox="0 0 25 25" fill="none" xmlns="http://www.w3.org/2000/svg">
<circle cx="12.5" cy="12.5" r="12.5" fill="#6C757D"/>
<path d="M21.875 12.6953C21.875 12.6953 18.3594 6.25 12.5 6.25C6.64062 6.25 3.125 12.6953 3.125 12.6953C3.125 12.6953 6.64062 19.1406 12.5 19.1406C18.3594 19.1406 21.875 12.6953 21.875 12.6953ZM4.49961 12.6953C5.06623 11.8341 5.71794 11.0321 6.44492 10.3012C7.95312 8.79062 10.0156 7.42188 12.5 7.42188C14.9844 7.42188 17.0457 8.79062 18.5563 10.3012C19.2832 11.0321 19.9349 11.8341 20.5016 12.6953C20.4336 12.7973 20.3586 12.9098 20.273 13.0328C19.8805 13.5953 19.3004 14.3453 18.5563 15.0895C17.0457 16.6 14.9832 17.9688 12.5 17.9688C10.0156 17.9688 7.9543 16.6 6.44375 15.0895C5.71677 14.3586 5.06506 13.5565 4.49844 12.6953H4.49961Z" fill="#F8FAFC"/>
<path d="M12.5 9.76562C11.723 9.76562 10.9778 10.0743 10.4284 10.6237C9.87898 11.1731 9.57031 11.9183 9.57031 12.6953C9.57031 13.4723 9.87898 14.2175 10.4284 14.7669C10.9778 15.3163 11.723 15.625 12.5 15.625C13.277 15.625 14.0222 15.3163 14.5716 14.7669C15.121 14.2175 15.4297 13.4723 15.4297 12.6953C15.4297 11.9183 15.121 11.1731 14.5716 10.6237C14.0222 10.0743 13.277 9.76562 12.5 9.76562ZM8.39844 12.6953C8.39844 11.6075 8.83057 10.5643 9.59976 9.79507C10.3689 9.02588 11.4122 8.59375 12.5 8.59375C13.5878 8.59375 14.6311 9.02588 15.4002 9.79507C16.1694 10.5643 16.6016 11.6075 16.6016 12.6953C16.6016 13.7831 16.1694 14.8264 15.4002 15.5956C14.6311 16.3647 13.5878 16.7969 12.5 16.7969C11.4122 16.7969 10.3689 16.3647 9.59976 15.5956C8.83057 14.8264 8.39844 13.7831 8.39844 12.6953Z" fill="#F8FAFC"/>
</svg>
