<svg width="25" height="25" viewBox="0 0 25 25" fill="none" xmlns="http://www.w3.org/2000/svg">
<circle cx="12.5" cy="12.5" r="12.5" fill="#6C757D"/>
<path d="M6.05469 12.8906C6.21009 12.8906 6.35912 12.8289 6.46901 12.719C6.57889 12.6091 6.64062 12.4601 6.64062 12.3047C6.64062 12.1493 6.57889 12.0003 6.46901 11.8904C6.35912 11.7805 6.21009 11.7188 6.05469 11.7188C5.89929 11.7188 5.75025 11.7805 5.64037 11.8904C5.53048 12.0003 5.46875 12.1493 5.46875 12.3047C5.46875 12.4601 5.53048 12.6091 5.64037 12.719C5.75025 12.8289 5.89929 12.8906 6.05469 12.8906Z" fill="#F8FAFC"/>
<path d="M8.98438 4.6875C8.36277 4.6875 7.76663 4.93443 7.32709 5.37397C6.88755 5.81351 6.64062 6.40965 6.64062 7.03125V9.375H5.46875C4.84715 9.375 4.25101 9.62193 3.81147 10.0615C3.37193 10.501 3.125 11.0971 3.125 11.7188L3.125 15.2344C3.125 15.856 3.37193 16.4521 3.81147 16.8917C4.25101 17.3312 4.84715 17.5781 5.46875 17.5781H6.64062V18.75C6.64062 19.3716 6.88755 19.9677 7.32709 20.4073C7.76663 20.8468 8.36277 21.0938 8.98438 21.0938H16.0156C16.6372 21.0938 17.2334 20.8468 17.6729 20.4073C18.1124 19.9677 18.3594 19.3716 18.3594 18.75V17.5781H19.5312C20.1529 17.5781 20.749 17.3312 21.1885 16.8917C21.6281 16.4521 21.875 15.856 21.875 15.2344V11.7188C21.875 11.0971 21.6281 10.501 21.1885 10.0615C20.749 9.62193 20.1529 9.375 19.5312 9.375H18.3594V7.03125C18.3594 6.40965 18.1124 5.81351 17.6729 5.37397C17.2334 4.93443 16.6372 4.6875 16.0156 4.6875H8.98438ZM7.8125 7.03125C7.8125 6.72045 7.93597 6.42238 8.15573 6.20261C8.3755 5.98284 8.67357 5.85938 8.98438 5.85938H16.0156C16.3264 5.85938 16.6245 5.98284 16.8443 6.20261C17.064 6.42238 17.1875 6.72045 17.1875 7.03125V9.375H7.8125V7.03125ZM8.98438 12.8906C8.36277 12.8906 7.76663 13.1376 7.32709 13.5771C6.88755 14.0166 6.64062 14.6128 6.64062 15.2344V16.4062H5.46875C5.15795 16.4062 4.85988 16.2828 4.64011 16.063C4.42034 15.8432 4.29688 15.5452 4.29688 15.2344V11.7188C4.29688 11.4079 4.42034 11.1099 4.64011 10.8901C4.85988 10.6703 5.15795 10.5469 5.46875 10.5469H19.5312C19.8421 10.5469 20.1401 10.6703 20.3599 10.8901C20.5797 11.1099 20.7031 11.4079 20.7031 11.7188V15.2344C20.7031 15.5452 20.5797 15.8432 20.3599 16.063C20.1401 16.2828 19.8421 16.4062 19.5312 16.4062H18.3594V15.2344C18.3594 14.6128 18.1124 14.0166 17.6729 13.5771C17.2334 13.1376 16.6372 12.8906 16.0156 12.8906H8.98438ZM17.1875 15.2344V18.75C17.1875 19.0608 17.064 19.3589 16.8443 19.5786C16.6245 19.7984 16.3264 19.9219 16.0156 19.9219H8.98438C8.67357 19.9219 8.3755 19.7984 8.15573 19.5786C7.93597 19.3589 7.8125 19.0608 7.8125 18.75V15.2344C7.8125 14.9236 7.93597 14.6255 8.15573 14.4057C8.3755 14.186 8.67357 14.0625 8.98438 14.0625H16.0156C16.3264 14.0625 16.6245 14.186 16.8443 14.4057C17.064 14.6255 17.1875 14.9236 17.1875 15.2344Z" fill="#F8FAFC"/>
</svg>
